# xmcd
#
# Track frame offsets:
#	150
#	22101
#	40506
#	59433
#	80037
#	96306
#	113416
#	130822
#	151236
#	164159
#	186688
#	209776
#
# Disc length: 3013 seconds
#
# Revision: 1
# Processed by: cddbd v1.5.1PL2 Copyright (c) Steve Scherf et al.
# Submitted via: audiograbber 1.82.01
#
DISCID=ae0bc30c
DTITLE=Shirley Kaiser - Tempo de Vencer
DYEAR=2006
DGENRE=Ballad
TTITLE0=Profetiza
TTITLE1=Grande Coral
TTITLE2=Seguidores
TTITLE3=Jesus
TTITLE4=Tempo de Vencer
TTITLE5=Cântico
TTITLE6=Soldado Vencedor
TTITLE7=Sunamita
TTITLE8=Previsão de Jeová
TTITLE9=Deus é Fiel
TTITLE10=Unção de Deus
TTITLE11=Ismael e Agar
EXTD=
EXTT0=
EXTT1=
EXTT2=
EXTT3=
EXTT4=
EXTT5=
EXTT6=
EXTT7=
EXTT8=
EXTT9=
EXTT10=
EXTT11=
PLAYORDER=
